<svg width="187" height="171" viewBox="0 0 187 171" fill="none" xmlns="http://www.w3.org/2000/svg">
<path d="M6.94754 48.9947L37.4296 77.894L23.0763 93.0333C15.1103 101.436 15.5053 114.603 23.9641 122.622L54.4461 151.522C62.9049 159.541 76.0743 159.234 84.0404 150.832L98.3936 135.693L128.876 164.592C137.334 172.611 150.428 172.232 158.394 163.83L237.413 80.6359C245.379 72.2335 244.984 59.0664 236.525 51.0469L114.597 -64.5503C106.138 -72.5699 92.9687 -72.263 85.0027 -63.8606L6.05978 19.4057C-1.90628 27.808 -1.51122 40.9751 6.94754 48.9947ZM52.6706 92.3436L83.1526 121.243L68.7994 136.382L38.3173 107.483L52.6706 92.3436Z" fill="#DCDAFF"/>
</svg>
