<svg width="762" height="942" viewBox="0 0 762 942" fill="none" xmlns="http://www.w3.org/2000/svg">
<path fill-rule="evenodd" clip-rule="evenodd" d="M-121.118 282.088C-90.1576 192.352 -86.5484 78.2796 -8.92405 25.6584C69.5673 -27.5506 172.509 19.4028 265.546 19.9699C341.143 20.4307 423.846 -10.673 488.15 28.6883C551.776 67.6342 550.418 164.256 597.299 223.04C643.897 281.468 746.803 295.122 760.284 369.909C773.685 444.249 694.105 502.881 660.035 571.053C630.148 630.856 609.48 692.292 571.683 747.295C523.391 817.569 489.027 917.104 408.164 937.576C328.223 957.814 256.419 886.582 186.223 844.88C125.791 808.977 82.2508 754.968 27.0702 711.174C-44.9804 653.991 -158.306 635.667 -188.862 547.193C-218.729 460.711 -151.392 369.836 -121.118 282.088Z" fill="#DCDAFF"/>
</svg>
