<svg width="617" height="527" viewBox="0 0 617 527" fill="none" xmlns="http://www.w3.org/2000/svg">
<path fill-rule="evenodd" clip-rule="evenodd" d="M262.389 28.2821C328.376 17.4837 400.755 -14.7513 458.585 9.7065C517.06 34.4375 520.87 101.772 550.452 150.112C574.489 189.389 620.519 222.91 616.636 267.971C612.793 312.556 552.033 340.74 530.418 382.587C508.934 424.181 533.521 481.541 491.167 510.881C449.067 540.044 386.856 516.37 333.331 519.112C286.378 521.517 241.372 529.184 194.87 526.058C135.458 522.065 62.2585 534.031 23.4583 498.284C-14.899 462.946 6.46857 404.474 9.91758 355.662C12.8869 313.64 32.5965 274.951 42.183 233.288C54.7002 178.888 29.6753 114.736 75.0805 72.4652C119.463 31.1465 197.865 38.8412 262.389 28.2821Z" fill="#C9C6FF"/>
</svg>
