<svg width="70" height="70" viewBox="0 0 70 70" fill="none" xmlns="http://www.w3.org/2000/svg">
<g clip-path="url(#clip0_2480_35)">
<path fill-rule="evenodd" clip-rule="evenodd" d="M35 6.5625C27.4579 6.5625 20.2247 9.55859 14.8917 14.8917C9.55859 20.2247 6.5625 27.4579 6.5625 35C6.5625 42.5421 9.55859 49.7753 14.8917 55.1083C20.2247 60.4414 27.4579 63.4375 35 63.4375C42.5421 63.4375 49.7753 60.4414 55.1083 55.1083C60.4414 49.7753 63.4375 42.5421 63.4375 35C63.4375 27.4579 60.4414 20.2247 55.1083 14.8917C49.7753 9.55859 42.5421 6.5625 35 6.5625ZM0 35C0 25.7174 3.68749 16.815 10.2513 10.2513C16.815 3.68749 25.7174 0 35 0C44.2826 0 53.185 3.68749 59.7487 10.2513C66.3125 16.815 70 25.7174 70 35C70 44.2826 66.3125 53.185 59.7487 59.7487C53.185 66.3125 44.2826 70 35 70C25.7174 70 16.815 66.3125 10.2513 59.7487C3.68749 53.185 0 44.2826 0 35Z" fill="#ffffff"/>
<path fill-rule="evenodd" clip-rule="evenodd" d="M31.7188 3.28125C31.7188 2.41101 32.0645 1.57641 32.6798 0.961056C33.2952 0.345702 34.1298 0 35 0C44.2826 0 53.185 3.68749 59.7487 10.2513C66.3125 16.815 70 25.7174 70 35C70 35.8702 69.6543 36.7048 69.0389 37.3202C68.4236 37.9355 67.589 38.2812 66.7188 38.2812C65.8485 38.2812 65.0139 37.9355 64.3986 37.3202C63.7832 36.7048 63.4375 35.8702 63.4375 35C63.4375 27.4579 60.4414 20.2247 55.1083 14.8917C49.7753 9.55859 42.5421 6.5625 35 6.5625C34.1298 6.5625 33.2952 6.2168 32.6798 5.60144C32.0645 4.98609 31.7188 4.15149 31.7188 3.28125Z" fill="#675CFF"/>
</g>
<defs>
<clipPath id="clip0_2480_35">
<rect width="70" height="70" fill="white"/>
</clipPath>
</defs>
</svg>
