<svg width="35" height="35" viewBox="0 0 35 35" fill="none" xmlns="http://www.w3.org/2000/svg">
<mask id="mask0_2004_154" style="mask-type:alpha" maskUnits="userSpaceOnUse" x="0" y="0" width="35" height="35">
<rect width="35" height="35" fill="#D9D9D9"/>
</mask>
<g mask="url(#mask0_2004_154)">
<circle cx="17" cy="18" r="9" fill="white"/>
<path d="M12.7455 35L9.80909 29.819L4.24545 28.5238L4.78636 22.5333L1 18L4.78636 13.4667L4.24545 7.47619L9.80909 6.18095L12.7455 1L18 3.34762L23.2545 1L26.1909 6.18095L31.7545 7.47619L31.2136 13.4667L35 18L31.2136 22.5333L31.7545 28.5238L26.1909 29.819L23.2545 35L18 32.6524L12.7455 35ZM16.3773 23.7476L25.1091 14.6L22.9455 12.2524L16.3773 19.1333L13.0545 15.7333L10.8909 18L16.3773 23.7476Z" fill="white"/>
<path d="M13.0545 34L10.2909 29.1238L5.05455 27.9048L5.56364 22.2667L2 18L5.56364 13.7333L5.05455 8.09524L10.2909 6.87619L13.0545 2L18 4.20952L22.9455 2L25.7091 6.87619L30.9455 8.09524L30.4364 13.7333L34 18L30.4364 22.2667L30.9455 27.9048L25.7091 29.1238L22.9455 34L18 31.7905L13.0545 34ZM16.4727 23.4095L24.6909 14.8L22.6545 12.5905L16.4727 19.0667L13.3455 15.8667L11.3091 18L16.4727 23.4095Z" fill="#675CFF"/>
</g>
</svg>
