<svg width="35" height="35" viewBox="0 0 35 35" fill="none" xmlns="http://www.w3.org/2000/svg">
<mask id="mask0_2004_154" style="mask-type:alpha" maskUnits="userSpaceOnUse" x="0" y="0" width="35" height="35">
<rect width="35" height="35" fill="#D9D9D9"/>
</mask>
<g mask="url(#mask0_2004_154)">
<path d="M22.1666 12.3147L15.8795 18.4721L12.9629 15.2314L10.6943 17.4999L15.8795 22.6851L24.2082 14.4406L22.1666 12.3147Z" fill="white"/>
<path d="M12.5417 32.8125L9.77087 28.1458L4.52087 26.9792L5.03129 21.5833L1.45837 17.5L5.03129 13.4167L4.52087 8.02083L9.77087 6.85417L12.5417 2.1875L17.5 4.30208L22.4584 2.1875L25.2292 6.85417L30.4792 8.02083L29.9688 13.4167L33.5417 17.5L29.9688 21.5833L30.4792 26.9792L25.2292 28.1458L22.4584 32.8125L17.5 30.6979L12.5417 32.8125ZM15.9688 22.6771L24.2084 14.4375L22.1667 12.3229L15.9688 18.5208L12.8334 15.4583L10.7917 17.5L15.9688 22.6771Z" fill="#675CFF"/>
</g>
</svg>
